<?xml version="1.0" encoding="iso-8859-1"?>
<!-- Generator: Adobe Illustrator 19.0.0, SVG Export Plug-In . SVG Version: 6.00 Build 0)  -->
<svg version="1.1" id="Capa_1" xmlns="http://www.w3.org/2000/svg" xmlns:xlink="http://www.w3.org/1999/xlink" x="0px" y="0px"
	 viewBox="0 0 449.306 449.306" style="enable-background:new 0 0 449.306 449.306;" xml:space="preserve">
<g>
	<path style="fill:#00EFD1;" d="M447.739,250.775l-58.514-125.91c-2.014-3.521-5.884-5.557-9.927-5.224h-50.155
		c-5.771,0-10.449,4.678-10.449,10.449c0,5.771,4.678,10.449,10.449,10.449h43.363l53.29,114.939h-64.261
		c-11.322-0.103-22.417,3.171-31.869,9.404c-9.34,5.97-16.774,14.491-21.42,24.555c-9.495,20.853-30.378,34.161-53.29,33.959
		h-60.604c-11.322,0.103-22.417-3.171-31.869-9.404c-9.34-5.97-16.774-14.491-21.42-24.555
		c-9.495-20.853-30.378-34.161-53.29-33.959H23.51l63.216-114.939h33.437c5.771,0,10.449-4.678,10.449-10.449
		c0-5.771-4.678-10.449-10.449-10.449H80.457c-3.776-0.358-7.425,1.467-9.404,4.702L2.09,250.775
		c-1.206,1.287-1.942,2.944-2.09,4.702v129.567c0.832,29.282,24.524,52.744,53.812,53.29h341.682
		c29.289-0.546,52.98-24.008,53.812-53.29v-130.09C449.108,253.461,448.572,252.032,447.739,250.775z"/>
	<path style="fill:#00ACEA;" d="M303.02,166.661c-3.706-4.04-9.986-4.31-14.025-0.603c-0.21,0.192-0.411,0.394-0.603,0.603
		l-53.29,53.29V21.42c0-5.771-4.678-10.449-10.449-10.449c-5.771,0-10.449,4.678-10.449,10.449v198.531l-53.29-53.29
		c-4.617-3.462-11.166-2.527-14.629,2.09c-2.786,3.715-2.786,8.824,0,12.539l71.053,71.576c3.706,4.04,9.986,4.31,14.025,0.603
		c0.21-0.192,0.411-0.394,0.603-0.603l71.053-71.576c4.04-3.706,4.31-9.986,0.603-14.025
		C303.431,167.055,303.23,166.854,303.02,166.661z"/>
</g>
<g>
</g>
<g>
</g>
<g>
</g>
<g>
</g>
<g>
</g>
<g>
</g>
<g>
</g>
<g>
</g>
<g>
</g>
<g>
</g>
<g>
</g>
<g>
</g>
<g>
</g>
<g>
</g>
<g>
</g>
</svg>
